<?xml version="1.0" encoding="UTF-8"?>
<svg id="Layer_1" data-name="Layer 1" xmlns="http://www.w3.org/2000/svg" viewBox="0 0 1212.72 191.83">
  <defs>
    <style>
      .cls-1 {
        fill: #fff;
      }

      .cls-2 {
        fill: none;
        stroke: #fff;
        stroke-linecap: round;
        stroke-linejoin: round;
        stroke-width: 5px;
      }
    </style>
  </defs>
  <g>
    <g>
      <path class="cls-2" d="m112.24,21.12c0,10.28-8.34,18.62-18.62,18.62s-18.62-8.34-18.62-18.62S83.33,2.5,93.62,2.5s18.62,8.34,18.62,18.62Z"/>
      <path class="cls-2" d="m117.43,71.49s8.98,42.75,67.68,71.51"/>
      <path class="cls-2" d="m69.78,71.49S61.2,114.23,2.5,142.99"/>
      <g>
        <path class="cls-2" d="m82.93,130.91c-5.75-10.88-10.86-22.37-13.47-34.44-2.14-9.9-2.63-21.04,2.65-30.08,4.31-7.38,12.74-13.72,21.52-13.91"/>
        <path class="cls-2" d="m81.1,127.38c3.13,6.18,8.56,13.37,12.75,18.88"/>
      </g>
      <g>
        <path class="cls-2" d="m104.15,130.91c5.75-10.88,10.86-22.37,13.47-34.44,2.14-9.9,2.63-21.04-2.65-30.08-4.31-7.38-12.74-13.72-21.52-13.91"/>
        <path class="cls-2" d="m105.98,127.38c-3.38,6.69-7.53,12.97-12.13,18.88"/>
      </g>
    </g>
    <g>
      <path class="cls-2" d="m36.35,167.53c13.2-17.58,44.66-3.26,60.12,3.94,16.28,7.58,34.94,19.21,53.47,17.73,14.77-1.18,27.15-11.61,27.15-27.27,0-15.06-12.21-27.27-27.27-27.27s-55.99,27.27-55.99,27.27"/>
      <path class="cls-2" d="m151.35,156.33c-13.2,17.58-44.66,3.26-60.12-3.94-16.28-7.58-34.94-19.21-53.47-17.73-14.77,1.18-27.15,11.61-27.15,27.27,0,15.06,12.21,27.27,27.27,27.27,15.06,0,55.99-27.27,55.99-27.27"/>
    </g>
  </g>
  <g>
    <path class="cls-1" d="m223.76,52.44c0-1.53-.14-2.63-.43-3.3-.29-.67-.72-1.29-1.29-1.87s-.86-1.24-.86-2.01h35.47c11.2,0,20.75,2.37,28.65,7.11,7.9,4.74,13.86,10.96,17.88,18.67,4.02,7.71,6.03,15.92,6.03,24.63s-2.01,16.75-6.03,24.41c-4.02,7.66-9.98,13.86-17.88,18.6-7.9,4.74-17.45,7.11-28.65,7.11h-32.88V52.44Zm30.3,90.32c9,0,16.7-2.23,23.12-6.68,6.41-4.45,11.22-10.29,14.43-17.52,3.21-7.23,4.81-14.96,4.81-23.19s-1.6-15.8-4.81-22.98c-3.21-7.18-7.95-13-14.22-17.45-6.27-4.45-13.86-6.68-22.76-6.68h-18.52v94.49h17.95Z"/>
    <path class="cls-1" d="m330.24,59.19c-1.77-1.72-2.66-3.83-2.66-6.32s.88-4.59,2.66-6.32c1.77-1.72,3.9-2.58,6.39-2.58s4.6.86,6.32,2.58c1.72,1.72,2.58,3.83,2.58,6.32s-.86,4.6-2.58,6.32c-1.72,1.72-3.83,2.58-6.32,2.58s-4.62-.86-6.39-2.58Zm.36,21.97c0-2.3-.31-3.88-.93-4.74-.62-.86-.93-1.67-.93-2.44h13.79v71.8h-11.92v-64.62Z"/>
    <path class="cls-1" d="m368.07,81.16c0-2.3-.31-3.88-.93-4.74-.62-.86-.93-1.67-.93-2.44h12.92v12.21c3.92-4.31,8.64-7.66,14.14-10.05,5.5-2.39,10.89-3.59,16.16-3.59,5.74,0,10.22.89,13.43,2.66,3.21,1.77,5.5,4.72,6.89,8.83,1.39,4.12,2.08,9.86,2.08,17.23v17.23c0,7.75.09,13.28.29,16.59.19,3.3.6,5.6,1.22,6.89.62,1.29,1.65,2.18,3.09,2.66v1.15h-11.92c-1.44-.48-2.47-1.34-3.09-2.58-.62-1.24-1.03-3.4-1.22-6.46-.19-3.06-.29-8.04-.29-14.93v-19.67c0-6.03-.31-10.84-.93-14.43-.62-3.59-1.99-6.41-4.09-8.47-2.11-2.06-5.27-3.09-9.48-3.09s-8.71,1.34-13.79,4.02c-5.07,2.68-8.95,6.03-11.63,10.05v55.57h-11.92v-64.62Z"/>
    <path class="cls-1" d="m498.46,52.44c0-1.53-.14-2.63-.43-3.3-.29-.67-.72-1.29-1.29-1.87-.57-.57-.86-1.24-.86-2.01h14.93v100.52h-12.35V52.44Z"/>
    <path class="cls-1" d="m537.37,81.16c0-2.3-.31-3.88-.93-4.74-.62-.86-.93-1.67-.93-2.44h12.92v12.21c3.92-4.31,8.64-7.66,14.14-10.05,5.5-2.39,10.89-3.59,16.16-3.59,5.74,0,10.22.89,13.43,2.66,3.21,1.77,5.5,4.72,6.89,8.83,1.39,4.12,2.08,9.86,2.08,17.23v17.23c0,7.75.09,13.28.29,16.59.19,3.3.6,5.6,1.22,6.89.62,1.29,1.65,2.18,3.09,2.66v1.15h-11.92c-1.44-.48-2.47-1.34-3.09-2.58-.62-1.24-1.03-3.4-1.22-6.46-.19-3.06-.29-8.04-.29-14.93v-19.67c0-6.03-.31-10.84-.93-14.43-.62-3.59-1.99-6.41-4.09-8.47-2.11-2.06-5.27-3.09-9.48-3.09s-8.71,1.34-13.79,4.02c-5.07,2.68-8.95,6.03-11.63,10.05v55.57h-11.92v-64.62Z"/>
    <path class="cls-1" d="m637.18,141.9c-5.46-3.54-9.57-8.16-12.35-13.86-2.78-5.69-4.16-11.75-4.16-18.17s1.39-12.64,4.16-18.38c2.78-5.74,6.82-10.34,12.13-13.79,5.31-3.45,11.56-5.17,18.74-5.17,5.74,0,10.84,1.08,15.29,3.23,4.45,2.15,7.97,5.15,10.55,8.97v-33.75c0-2.3-.31-3.88-.93-4.74-.62-.86-.93-1.67-.93-2.44h13.79v75.25c0,7.56.09,12.95.29,16.16.19,3.21.6,5.46,1.22,6.75.62,1.29,1.65,2.18,3.09,2.66v1.15h-11.92c-1.53-.48-2.61-1.46-3.23-2.94-.62-1.48-1.03-4.33-1.22-8.54-2.58,4.12-6.1,7.3-10.55,9.55-4.45,2.25-9.31,3.37-14.58,3.37-7.47,0-13.93-1.77-19.39-5.31Zm35.68-2.73c4.07-3.06,6.96-7.04,8.69-11.92v-35.04c-1.53-4.79-4.38-8.71-8.54-11.78-4.16-3.06-8.88-4.6-14.14-4.6s-10.03,1.6-14,4.81c-3.97,3.21-6.96,7.42-8.98,12.64-2.01,5.22-3.01,10.75-3.01,16.59s1,11.2,3.01,16.37c2.01,5.17,5,9.38,8.98,12.64,3.97,3.26,8.69,4.88,14.14,4.88,5.17,0,9.79-1.53,13.86-4.6Z"/>
    <path class="cls-1" d="m718.45,81.16c0-2.3-.31-3.88-.93-4.74-.62-.86-.93-1.67-.93-2.44h12.92v12.64c3.83-4.31,7.95-7.75,12.35-10.34,4.4-2.58,8.62-3.88,12.64-3.88,2.87,0,5.24.72,7.11,2.15,1.87,1.44,2.8,3.35,2.8,5.74,0,2.11-.72,3.9-2.15,5.39-1.44,1.49-3.21,2.23-5.31,2.23s-3.9-.74-5.39-2.23c-1.49-1.48-2.23-3.28-2.23-5.39,0-1.15.24-2.2.72-3.16h-1c-3.26.19-6.58,1.68-9.98,4.45-3.4,2.78-6.3,5.79-8.69,9.05v55.14h-11.92v-64.62Z"/>
    <path class="cls-1" d="m791.76,142.55c-6.27-3.11-11.18-7.49-14.72-13.14-3.54-5.65-5.31-12.16-5.31-19.53s1.75-14.17,5.24-19.82c3.49-5.65,8.21-9.98,14.15-13,5.93-3.02,12.49-4.52,19.67-4.52s13.23,1.58,18.74,4.74c5.5,3.16,9.79,7.66,12.85,13.5,3.06,5.84,4.55,12.54,4.45,20.1h-62.9c.19,6.41,1.51,12.18,3.95,17.3,2.44,5.12,5.89,9.17,10.34,12.13,4.45,2.97,9.6,4.45,15.44,4.45,8.81,0,16.66-4.26,23.55-12.78l6.32,3.45c-3.35,3.83-7.68,6.75-13,8.76-5.31,2.01-11.13,3.02-17.45,3.02-7.95,0-15.06-1.55-21.33-4.67Zm43.44-34.54c0-10.34-2.18-18.43-6.53-24.27-4.36-5.84-10.12-8.76-17.3-8.76-5.65,0-10.48,1.51-14.5,4.52-4.02,3.02-7.11,7.04-9.26,12.06-2.15,5.03-3.37,10.51-3.66,16.44h51.27Z"/>
    <path class="cls-1" d="m899.67,154.11c3.64-2.49,6.17-4.38,7.61-5.67,1.44-1.29,2.39-2.61,2.87-3.95.48-1.34.72-3.3.72-5.89V52.44c0-1.53-.14-2.63-.43-3.3-.29-.67-.72-1.29-1.29-1.87s-.86-1.24-.86-2.01h14.93v92.19c0,2.3-.55,4.31-1.65,6.03-1.1,1.72-3.33,3.64-6.68,5.74-3.35,2.1-8.43,4.69-15.22,7.75v-2.87Z"/>
    <path class="cls-1" d="m957.11,144.41c-3.16-1.77-5.41-4.71-6.75-8.83-1.34-4.12-2.01-9.81-2.01-17.09v-37.34c0-2.3-.31-3.88-.93-4.74-.62-.86-.93-1.67-.93-2.44h13.79v43.65c0,6.22.24,11.03.72,14.43.48,3.4,1.75,6.17,3.81,8.33,2.06,2.15,5.39,3.23,9.98,3.23,4.11,0,8.69-1.34,13.71-4.02,5.03-2.68,8.93-6.03,11.7-10.05v-48.39c0-2.3-.31-3.88-.93-4.74-.62-.86-.93-1.67-.93-2.44h13.79v46.67c0,6.99.09,11.99.29,15.01.19,3.02.6,5.15,1.22,6.39.62,1.25,1.65,2.11,3.09,2.58v1.15h-11.92c-1.53-.48-2.63-1.48-3.3-3.02-.67-1.53-1.05-4.45-1.15-8.76-4.02,4.12-8.74,7.35-14.15,9.69-5.41,2.35-10.7,3.52-15.87,3.52-5.65-.1-10.05-1.03-13.21-2.8Z"/>
    <path class="cls-1" d="m1031.93,80.44c-.48-.96-1.29-2.15-2.44-3.59-.48-.48-.81-.91-1-1.29-.19-.38-.29-.91-.29-1.58h13.93l24.84,60.74,24.27-60.74h3.59l-28.72,71.8h-7.61l-26.57-65.34Z"/>
    <path class="cls-1" d="m1125.77,142.55c-6.27-3.11-11.18-7.49-14.72-13.14-3.54-5.65-5.31-12.16-5.31-19.53s1.75-14.17,5.24-19.82c3.49-5.65,8.21-9.98,14.15-13,5.93-3.02,12.49-4.52,19.67-4.52s13.23,1.58,18.74,4.74c5.5,3.16,9.79,7.66,12.85,13.5,3.06,5.84,4.55,12.54,4.45,20.1h-62.9c.19,6.41,1.51,12.18,3.95,17.3,2.44,5.12,5.89,9.17,10.34,12.13,4.45,2.97,9.6,4.45,15.44,4.45,8.81,0,16.66-4.26,23.55-12.78l6.32,3.45c-3.35,3.83-7.68,6.75-13,8.76-5.31,2.01-11.13,3.02-17.45,3.02-7.95,0-15.06-1.55-21.32-4.67Zm43.44-34.54c0-10.34-2.18-18.43-6.53-24.27-4.36-5.84-10.12-8.76-17.3-8.76-5.65,0-10.48,1.51-14.5,4.52-4.02,3.02-7.11,7.04-9.26,12.06-2.15,5.03-3.38,10.51-3.66,16.44h51.27Z"/>
    <path class="cls-1" d="m1200.8,51c0-2.3-.31-3.88-.93-4.74-.62-.86-.93-1.67-.93-2.44h13.79v101.96h-11.92V51Z"/>
  </g>
</svg>