<svg width="20" height="20" viewBox="0 0 20 20" fill="none" xmlns="http://www.w3.org/2000/svg">
<path d="M12.881 19.6339V13.2491H15.267V10.8577H12.881V9.15085C12.881 8.55125 13.212 8.12653 13.69 8.12653H15.267L15.272 5.7501L14.801 5.73012C14.6097 5.72279 14.4187 5.71912 14.228 5.71912C13.3584 5.66472 12.4873 5.80115 11.676 6.11886C10.619 6.67849 10.396 7.50394 10.407 10.366V10.8567H8.44503V13.2481H10.491V19.6329H3.51204C2.6969 19.6318 1.91542 19.3079 1.33885 18.7321C0.762273 18.1563 0.437622 17.3755 0.436035 16.5609V3.72145C0.436829 2.90633 0.76113 2.12482 1.33779 1.54835C1.91445 0.971883 2.69638 0.647543 3.51204 0.646484H16.36C17.1757 0.647543 17.9576 0.971883 18.5343 1.54835C19.1109 2.12482 19.4352 2.90633 19.436 3.72145V16.5609C19.4352 17.3761 19.1109 18.1576 18.5343 18.734C17.9576 19.3105 17.1757 19.6348 16.36 19.6359L12.881 19.6339Z" fill="white"/>
</svg>
