<svg width="262" height="447" viewBox="0 0 262 447" fill="none" xmlns="http://www.w3.org/2000/svg">
<g clip-path="url(#clip0_37_325)">
<path d="M160.1 49.25C144.38 56.71 132.24 71.36 127.85 88.2C125.39 97.63 125.25 107.59 122.26 116.87C119.9 124.21 115.82 130.93 113.76 138.36C111.71 145.79 112.15 154.68 117.71 160.01C124.72 166.74 136.47 164.77 144.79 159.74C153.1 154.71 159.81 147.19 168.53 142.91C186.54 134.07 208.84 140.85 227.57 133.69C242.49 128 253.38 113.21 254.82 97.31C256.26 81.41 248.39 65.1 235.28 55.98C217.25 43.44 190.22 34.95 160.09 49.24L160.1 49.25Z" fill="#FFC9A3"/>
<path d="M98.75 415.91C107.23 435.36 131.77 443.36 152.87 445.97C174.38 448.63 197.31 443.9 214.18 430.3C231.05 416.7 240.73 393.63 235.69 372.56C232.55 359.43 224.15 347.96 213.7 339.41C198.37 326.86 178.35 321.34 158.54 321.06C120.39 320.53 73.29 357.52 98.74 415.91H98.75Z" fill="#CD6D43"/>
<path d="M114.16 159.44C114.16 159.44 114.15 159.44 114.14 159.43L114.16 159.44Z" fill="black"/>
<path d="M260.96 347.44C260.55 341.87 259.52 336.36 258.28 330.92C247.88 285.35 208.25 272.26 204.74 272.32C203.16 272.35 202.4 273.6 202.08 274.99C201.75 276.25 201.57 277.55 201.38 278.84C200.87 282.45 200.6 286.08 200.25 289.71C199.97 292.84 199.55 295.97 198.6 298.97C198.78 298.47 198.48 299.31 198.36 299.69C198.36 299.71 198.26 300 198.2 300.13C197.88 301.13 197.38 302.07 196.81 302.95C195.31 305.68 191.31 308.69 188.52 310.04C184.02 312.21 171.48 316.21 157.46 313.57C157.48 313.23 157.5 312.89 157.51 312.55C157.59 310.93 157.63 309.3 157.49 307.68C157.03 303 155.77 298.36 153.45 294.25C152.01 291.68 150.24 289.28 148.09 287.26C146.85 286.06 145.55 284.91 144.05 284.04C141.63 282.47 138.99 281.4 136.28 280.47C136.15 279.32 136.02 278.17 135.89 277.01C135.63 274.82 135.37 272.64 135.01 270.47C136.48 271.8 138.05 273.02 139.68 274.16C142.09 275.83 144.65 277.32 147.38 278.38C152.05 280.26 157.08 280.95 162.05 281.54C166.45 282.07 170.89 282.15 175.32 281.99C180.93 281.72 186.6 281 191.89 279.05C194.06 278.23 196.1 277.11 198.06 275.86C199.83 274.69 201.57 273.45 203.06 271.93C206.73 267.99 209.34 263.07 210.63 257.85C213.11 247.85 213 237.23 203.86 230.07C200.93 227.77 197.45 226.34 193.95 225.16C191.93 224.53 189.87 224.05 187.79 223.7C186.87 216.36 185.48 208.87 181.37 202.6C179.68 200.08 177.72 197.66 175.11 196.06C171.16 193.63 167.7 193.51 163.36 194.94C161.7 195.47 160.11 196.27 158.64 197.21C156.95 198.33 155.47 199.75 154.09 201.23C149.81 205.78 146.8 211.44 145.03 217.42C144.74 218.44 144.49 219.46 144.27 220.49C144.19 220.36 144.11 220.22 144.03 220.08C142.94 218.18 141.78 216.33 140.71 214.42C138.84 211.09 136.92 207.53 135.39 204.51C133.3 200.09 131.26 195.66 129.12 191.27C126.93 186.37 124.83 181.42 123.11 176.33C120.66 169.07 119.91 162.99 119.99 160.35C120.84 161.57 122.02 161.58 123.12 161.19C126.07 160.07 129.42 157.8 130.3 159.79C130.86 161.62 130.65 164.35 130.74 166.67C130.76 170.18 130.87 173.76 132.06 177.1C132.5 178.6 133.17 180.02 134.14 181.24C135.62 183.26 138.1 184.19 140.52 184.44C143.64 184.79 146.79 184.54 149.86 183.88C153.4 183.19 156.8 181.86 159.86 179.96C161.02 179.24 162.06 178.34 163.05 177.39C164.05 176.44 165.19 175.37 166.25 175.72C166.29 175.73 166.33 175.74 166.37 175.76C166.38 175.76 166.41 175.78 166.44 175.79C166.71 175.89 166.97 176.03 167.22 176.18C167.25 176.2 167.28 176.22 167.31 176.24C167.34 176.26 167.38 176.29 167.41 176.31C167.6 176.44 167.78 176.59 167.96 176.75C168.06 176.84 168.15 176.93 168.25 177.03L168.37 177.15C169.13 178.03 169.67 179.08 170.25 180.09C172.79 184.67 174.46 186.99 179.64 188.82C181.36 189.43 183.2 189.55 185.01 189.65C187.56 189.79 190.13 189.59 192.63 189.04C197.5 187.9 201.84 185.11 205.34 181.59C207.95 179.05 210.05 176.99 213.69 177.19C214.18 177.25 214.67 177.35 215.16 177.45C216.01 177.6 216.87 177.85 217.73 177.66C220.81 177.03 222.76 173.85 223.06 170.87C223.22 168.64 222.29 165.82 222.53 164.1C222.67 162.75 222.95 162.01 223.67 160.71C224.55 159.03 225.3 158.13 226.27 156.59C226.84 155.71 227.27 154.76 227.63 153.77C228.02 152.75 228.34 151.7 228.38 150.61C228.73 144.46 223.69 140.75 218.2 139.52C217.03 139.27 215.83 139.28 214.64 139.25C212.56 139.18 210.49 139.34 208.42 139.57C205.27 139.95 202.17 140.64 199 140.85C197.58 141.08 195.15 140.49 194.54 140.18C194.38 140.08 194.23 139.97 194.09 139.84C193.97 139.73 193.85 139.62 193.74 139.5C193.61 139.35 193.51 139.2 193.41 139.03C193.37 138.94 193.34 138.83 193.33 138.83C193.16 137.87 193.15 137.12 193.27 136.49C193.47 134.84 193.82 133.94 194.62 132.36C195.51 130.51 196.39 129.18 197.45 127.73C198.52 126.25 199.62 124.78 200.6 123.24C201.13 122.4 201.41 121.43 201.71 120.49C201.93 119.46 202.07 118.34 201.8 117.32C200.85 114.22 197.99 112.1 195.02 111.06C192.93 110.38 190.7 110.33 188.52 110.39C186.25 110.51 184.03 111.07 181.84 111.64C179.86 112.16 177.91 112.79 175.99 113.5C174.18 114.24 172.41 115.07 170.64 115.91C168.13 117.06 165.59 118.37 163.52 117.99C162.72 117.86 161.97 117.57 161.17 117.44C160.22 117.29 159.26 117.34 158.32 117.52C155.79 117.95 153.46 119.07 151.21 120.26C149.58 121.11 147.95 121.97 146.35 122.86C138.82 127.07 131.99 132.5 126.12 138.82C123.57 141.42 121.47 144.39 119.33 147.32C118.49 148.31 117.69 149.15 117.11 149.31C117.3 148.19 117.66 147.66 117.99 146.41C118.79 142.69 120.02 138.89 121.11 135.72C121.2 135.45 121.29 135.19 121.37 134.95C123.86 132.78 126.47 130.73 128.62 128.21C130.79 125.9 132.53 122.66 134.03 120.45C135.75 117.8 137.62 116.12 140.31 114.56C141.8 113.71 143.85 112.72 145.94 112.23C147.77 111.71 150.75 111.54 153.04 110.77C157.31 109.36 160.25 106.51 164.43 105.48C166.25 104.99 167.88 104.72 170.05 104.5C172.8 104.27 175.57 104.11 178.25 103.42C180.26 102.93 182.27 102.32 184.01 101.19C186.84 99.23 189.26 96.14 189.3 92.57C189.13 89.86 187.01 87.3 186.92 85.07C186.88 83.83 186.96 83.19 187.57 81.97C187.7 81.69 187.83 81.4 187.98 81.12C188.28 80.57 188.21 80.64 188.61 80.17C188.71 80.05 188.82 79.93 188.94 79.83C189.08 79.71 189.23 79.59 189.39 79.49C189.53 79.39 189.68 79.3 189.83 79.22C190.5 78.89 191.17 78.55 191.85 78.27C193.89 77.4 196.5 77.73 199.07 77.59C202.83 77.59 206.54 76.73 210.02 75.34C212.18 74.34 214.33 73.23 216.07 71.57C217.74 70.12 219.21 68.23 219.37 65.95C219.72 63.93 218.75 61.99 217.56 60.42C216.68 59.14 215.73 58.45 215.01 57.43C213.2 55.01 214.09 53.3 215.73 50.89C217.78 47.89 220.22 46.26 222.84 43.77C224.19 42.55 225.41 41.12 226.07 39.4C226.29 38.83 226.53 38.25 226.59 37.64C226.66 36.92 226.53 36.2 226.32 35.52C226.07 34.86 225.74 34.21 225.26 33.68C224.69 33.1 223.95 32.7 223.22 32.36C222.28 32.06 221.84 31.44 221.59 31.1C220.87 29.46 222.03 27.72 223.35 25.68C223.56 25.36 223.77 25.04 223.99 24.73C224.44 24.07 224.88 23.41 225.33 22.74C226.37 21.22 227.39 19.67 228.31 18.07C229.71 15.67 230.81 12.91 230.48 10.08C230.3 8.48999 229.88 6.93999 229.54 5.37999C229.5 5.20999 229.47 5.04999 229.43 4.87999C229.4 4.73999 229.37 4.58999 229.34 4.44999C229.18 3.69999 229.1 2.91999 228.74 2.22999C228.01 0.999993 226.59 0.349993 225.22 0.159993C223.24 -0.170007 221.24 0.359993 219.34 0.859993C216.63 1.72999 214.09 3.07999 211.65 4.53999C209.1 6.03999 207.13 7.33999 204.49 8.22999C203.12 8.72999 202.51 8.83999 201.14 8.88999C200.39 8.85999 199.91 8.95999 199.06 8.66999C198.86 8.58999 198.67 8.49999 198.48 8.38999C197.9 8.02999 197.85 8.03999 197.26 7.54999C195.98 6.38999 194.88 5.03999 193.61 3.87999C192.82 3.11999 191.85 2.52999 190.77 2.28999C189.99 2.14999 189.18 2.12999 188.39 2.15999C184.88 2.43999 181.68 4.38999 179.39 7.00999C177.44 9.56999 176.45 11.86 174.23 14.18C173.63 14.76 173.25 15.23 172.38 15.76C170.42 16.66 168.98 16.25 167.47 15.14C164.39 12.85 161.9 9.89999 157.73 9.82999C154.65 9.92999 150.29 12.43 148.37 14.85C146.43 17.58 145.42 20.84 144.5 24.03C143.13 28.66 142.9 33.52 142.05 38.26C141.49 41.4 140.74 45.28 138.48 45.16C137.56 45.29 136.72 44.87 136.07 44.45C134.26 43.13 133.06 41.05 131 40.08C129 39.15 127.45 40.16 126.09 41.63C124.56 43.29 123.79 45.49 123.2 47.63C122.59 49.71 122.13 51.84 121.87 54C121.52 57.03 121.39 60.1 121.56 63.15C121.81 68.25 122.64 73.32 122.66 78.42C122.7 81.8 122.09 86.7 121.05 89.69C120.46 91.68 119.47 93.52 118.76 95.46C118.13 97.27 117.81 99.19 117.7 101.1C117.34 105.19 118.36 109.19 119.13 113.17C119.47 115.1 119.43 117.06 119.42 119.01C119.38 120.36 119.42 121.72 119.11 122.55C118.05 124.73 117.3 127.05 116.81 129.43C115.93 134.01 114.99 138.58 114.04 143.16C113.87 143.94 113.76 144.68 113.57 145.18C112.11 142.57 111.3 138.55 109.62 135.59C108.77 134.13 107.85 132.71 106.89 131.32C106.6 129.42 106.11 127.55 105.82 125.65C105.41 123.29 105.18 120.9 104.52 118.59C102.81 112.06 98.82 116.11 97.25 113.39C97.03 111.9 97.2 111.16 97.38 109.66C97.63 107.7 98.08 105.78 98.65 103.89C99.33 101.66 100.36 99.04 101.35 96.48C102.06 94.59 102.78 92.59 102.46 90.54C102.32 90.03 102.1 89.54 101.77 89.12C101.45 88.77 101.02 88.55 100.64 88.29C100.08 87.94 99.4 87.48 98.97 86.82C98.94 86.75 98.9 86.67 98.88 86.63C98.83 86.5 98.79 86.37 98.76 86.24C98.76 86.19 98.72 86.06 98.7 85.99C98.56 85.24 98.67 85.17 98.87 84.37C99.16 83.33 99.32 82.96 99.74 81.81C101.65 76.93 104.19 72.24 105.32 67.09C105.73 64.61 105.95 60.09 102.97 59.33C101.66 58.95 100.3 59.44 99 59.65C96.6 60.02 95.54 59.73 95.52 57.69C95.54 54.79 97.24 50.44 97.17 46.92C97.08 45.15 96.72 43.21 95.35 41.97C93.05 40.13 89.67 40.07 87.17 41.56C85.15 42.88 83.42 44.59 81.75 46.31C79.89 48.2 78.24 49.99 76.12 50.81C76.06 50.81 75.91 50.81 75.81 50.8C75.87 50.8 75.75 50.76 75.62 50.73C74.76 50.08 74.81 49.88 74.41 49.19C73.59 47.18 72.96 45.08 71.92 43.15C71.47 42.36 70.99 41.53 70.24 41C68.61 39.91 66.53 39.95 64.65 40.11C62.96 40.27 61.3 40.68 59.65 41.1C57.86 41.63 56.15 42.38 54.47 43.17C52.61 44.02 50.21 45.12 48.62 45.39C46.24 45.73 44.15 45.02 41.64 44.37C39.06 43.82 36.35 44.37 33.99 45.48C32.47 46.22 30.97 47.09 29.89 48.42C28.65 50.09 27.87 52.16 27.91 54.26C27.89 56.49 28.42 58.53 28 60.41C27.93 60.6 27.85 60.79 27.76 60.97C27.66 61.19 27.54 61.39 27.41 61.6C26.77 62.55 25.45 63.22 24.23 63.96C22.25 65.05 20.27 66.16 18.5 67.58C17.28 68.6 16.03 69.92 15.94 71.59C15.85 73.98 17.58 76.01 19.32 77.45C21.43 79 23.96 79.77 26.27 80.93C28.38 81.95 30.41 83.37 31.08 85.33C31.38 86.68 31.27 88.12 30 89.42C28.44 91.07 26.05 92.7 24.71 95.03C24.33 95.59 24 96.19 23.82 96.84C23.7 97.63 23.66 98.45 23.83 99.23C24.37 101.06 25.96 102.35 27.38 103.53C34.01 108.86 42.5 110.05 50.58 111.71C56.66 112.88 62 114.74 67.56 117.65C73.61 120.95 79.06 125.72 85.61 128.77C87.86 129.76 90.2 130.58 92.59 131.17C94.12 131.51 95.68 131.65 97.22 131.93C100.48 132.51 103.02 135.41 105.2 138.09C108.67 142.7 115.51 154.48 114.25 159.38C114.23 159.43 114.21 159.48 114.19 159.51C114.19 159.52 114.18 159.53 114.17 159.54C114.2 159.56 114.21 159.56 114.17 159.54C114.15 159.53 114.13 159.52 114.11 159.5C114.13 159.5 114.14 159.52 114.15 159.52C114.11 159.49 114.06 159.45 114.02 159.41C113.65 159.08 113.24 158.56 112.81 157.99C112.18 155.86 111.54 153.73 110.82 151.64C110.12 149.39 108.56 146.89 105.84 147.78C105.19 147.98 104.59 148.32 104.07 148.77C104.07 148.76 104.05 148.75 104.04 148.74C104.09 148.58 104.14 148.41 104.17 148.24C104.56 145.94 101.77 144.98 100.13 144.13C98.15 143.22 95.96 142.12 94.53 141.09C92.49 139.6 90.64 137.86 88.51 136.49C85.53 134.35 81.96 133.33 78.7 131.72C76.41 130.59 74.72 129.19 72.82 127.22C71.7 126.04 70.1 123.91 68.64 122.41C65.91 119.52 62.28 117.73 58.62 116.31C55.53 115.11 52.31 114.22 49.02 113.86C46.92 113.6 44.8 113.58 42.72 113.97C41.61 114.21 40.61 114.8 39.74 115.51C39.06 116.05 38.42 116.67 37.98 117.43C37.24 118.63 36.92 120.04 36.68 121.42C36.36 123.22 36.29 125.06 36.3 126.89C36.33 128.65 36.47 130.03 35.95 131.17C35.64 131.94 34.96 132.34 34.65 132.6C34.01 132.96 33.85 132.9 33.2 133.02C32.55 133.1 31.89 133.15 31.23 133.14C25.4 132.93 19.39 133.02 13.93 135.29C11 136.5 8.23 138.18 6.12 140.58C4.94 141.91 3.87001 143.35 3.26 145.03C2.34 147.57 2.34 150.36 2.84 153C3.06 154.24 3.23001 155.5 3.69001 156.67C4.22001 158.12 5 159.46 5.97 160.66C6.47 161.29 6.93001 161.97 7.55 162.51C10.29 164.86 13.85 166.07 17.4 166.51C21.63 167.06 25.86 166.49 30.09 166.31C32.21 166.23 34.22 166.2 35.05 167.45C35.47 168.42 33.95 171.31 33.1 173.55C32.57 174.98 32.11 176.46 31.91 177.98C31.7 180.32 31.97 182.73 32.91 184.91C32.93 184.94 32.94 184.97 32.96 185C31.82 185.13 30.68 185.26 29.58 185.42C26.98 185.75 24.42 186.33 21.95 187.22C19.67 187.96 17.43 188.98 15.59 190.53C13.58 192.12 11.9 194.3 11.43 196.86C11.3 198.45 11.31 200.16 12.08 201.6C12.96 203.32 14.81 204.59 15.65 205.81C16.5 206.92 16.84 207.51 17.2 208.87C17.23 209.05 17.25 209.23 17.25 209.41L17.2 209.61C17.02 210.05 17.03 210.01 16.68 210.39C16.41 210.63 16.14 210.86 15.86 211.08C15.65 211.25 15.43 211.42 15.21 211.56C15.04 211.68 14.85 211.79 14.67 211.9C14.44 212.02 14.21 212.13 13.98 212.23C11.78 213.21 9.42 213.74 7.14 214.49C5.02 215.11 2.89 216.03 1.55 217.85C0.690005 218.89 0.290005 220.24 0.0800049 221.56C4.94346e-06 222.8 -0.00999507 224.08 0.420005 225.26C1.21 226.75 2.59 227.82 4.12 228.51C6.76 229.57 8.92 229.77 11.32 230.99C13.05 231.79 13.48 232.38 14.12 234.12C14.86 236.64 14.5 239.75 14.1 242.72C13.82 244.99 13.38 247.24 13.06 249.51C12.82 251.17 12.54 252.83 12.66 254.51C12.94 258.48 15.06 260.18 18.75 261.49C23.17 263.12 28.15 261.85 31.98 259.34C35.49 257.13 38.6 253.61 41.38 251.25C44.34 248.76 47.41 247.58 51.12 248.63C53.44 249.38 56.76 251.92 59.74 252.53C60.94 252.88 62.19 252.72 63.39 252.43C64.32 252.22 65.12 251.7 65.94 251.24C68.74 249.64 70.88 247.07 72.58 244.37C74.49 241.49 75.84 238.28 76.7 234.94C77.43 232.13 77.77 229.23 78.65 226.46C79.02 225.35 79.54 223.82 80.75 222.84C82.38 221.35 83.68 221.22 86.02 221.46C88.64 221.73 91.27 222.11 93.91 221.9C97.81 221.48 100.9 219.85 103.56 217C104.74 215.68 105.64 214.12 106.44 212.54C107.19 210.69 107.63 208.67 107.6 206.67C107.65 203.59 106.47 200.65 105.02 197.99C104.1 196.29 103.13 194.6 101.89 193.1C98.81 189.33 94.59 185.29 94 181.09C93.91 179.75 94.35 178.18 94.98 176.76C95.26 176.52 95.56 176.28 95.87 176.03C97.02 175.11 98.46 174.05 99.44 173.66C101.32 172.83 103.45 172.58 105.19 171.46C109.16 168.81 109.15 163.46 108.74 159.2C108.57 157.55 108.45 155.66 109.03 155.18C109.26 155.23 109.31 155.29 109.76 155.71C110.47 156.51 111.08 157.38 111.7 158.24C112.28 160.18 112.88 162.11 113.51 164.03C113.57 164.19 113.67 164.29 113.79 164.34C114.23 165.47 114.65 166.62 115.07 167.76C116.71 172.05 117.99 176.47 119.5 180.8C121.37 186.24 123.71 191.52 126.51 196.54C128.87 200.85 131.77 204.84 134.05 209.2C135.43 211.71 136.43 213.74 137.66 216.44C138.96 219.21 140.16 222.04 141.05 224.98C141.68 227.07 142.28 229.16 142.92 231.25C142.69 236.27 143 241.32 143.69 246.28C144.28 250.23 145.29 254.17 147.16 257.72C154.23 271.11 168.77 270.96 172.49 267.95C174.31 266.48 174.93 263.98 175.11 261.74C175.4 257.9 175.22 254.02 174.52 250.24C174.33 249.01 172.5 240.58 170.4 242.45C169.89 242.98 169.88 243.78 169.78 244.47C169.65 245.73 169.65 246.99 169.62 248.25C169.54 251.6 169.52 254.34 169.2 257.57C169.01 259.32 168.86 261.45 168.24 262.71C167.15 264.8 164.79 264.83 162.92 263.62C160.82 262.05 159.52 260.37 157.91 258.52C155.46 255.64 153.31 252.53 151.5 249.21C149.54 245.57 147.41 241.02 145.84 236.74C145.17 234.93 144.58 233.09 144.02 231.25C144.11 229.35 144.28 227.44 144.55 225.5C144.64 224.73 144.76 223.97 144.88 223.22C145.08 223.44 145.29 223.65 145.51 223.86C151.44 228.74 162.12 225.59 169.11 224.83C175.18 224.02 180.87 223.87 186.7 224.75C186.93 226.66 188.74 239.11 188.11 249.89C188 249.98 187.88 250.08 187.77 250.18C185 252.51 182.49 255.25 180.88 258.51C180.06 260.11 179.4 261.8 179.21 263.61C178.92 266.46 180.37 267.34 181.38 267.28C184.99 267.07 189.17 260.75 189.46 250.18C189.86 249.89 190.29 249.62 190.82 249.34C192.85 248.31 195.11 247.65 196.91 249.03C198.9 250.69 199.14 254.74 197.89 257.87C197.34 259.24 196.88 260.27 195.93 261.64C195.03 263.01 192.59 265.5 191.43 266.48C187.24 269.87 182.93 271.91 177.82 273.27C173.35 274.28 167.77 274.52 163.28 273.69C154.58 271.85 146.89 267.1 142.78 259.21C141.39 256.43 140.46 253.17 139.85 249.79C139.86 249.26 139.23 248.95 138.91 249.44C138.81 249.6 138.84 249.78 138.88 249.95C138.94 250.31 139.01 250.67 139.08 251.03C139.3 252.13 139.51 253.23 139.81 254.31C140.74 257.64 142.19 260.86 144.34 263.59C149.2 269.95 156.87 273.81 164.69 275C169.43 275.56 174.28 275.3 178.91 274.14C181.47 273.39 183.96 272.4 186.35 271.22C189.15 269.67 191.83 267.82 194.07 265.52C197.55 262.11 200.21 257.31 199.6 252.31C198.55 246.26 193.58 246.34 189.53 248.88C189.89 240.92 188.8 232.28 188.08 226.12C188.04 225.74 187.99 225.35 187.94 224.97C188.48 225.07 189.03 225.17 189.57 225.28C192.13 225.76 194.03 226.41 196.33 227.32C198.66 228.2 201.02 229.43 202.71 230.69C213.08 238.41 211.95 255.62 205.67 266.14C204.15 268.69 202.04 271.43 199.44 273.24C196.38 275.54 193.74 277 190.35 278.21C183.9 280.3 177.04 280.85 169.89 280.8C166.38 280.74 163.09 280.47 159.28 279.95C155.48 279.45 151.2 278.61 148.15 277.38C144.73 276.06 142.14 274.46 139.37 272.45C137.66 271.21 136 269.82 134.58 268.39C134.18 266.47 133.68 264.58 133.16 262.69C132.65 260.76 132.21 259.47 131.99 257.7C131.46 253.66 131.99 249.56 131.55 245.51C131.45 244.5 131.29 243.48 130.94 242.52C130.72 241.77 130.37 241.02 129.7 240.58C129 240.13 128.02 240.45 127.6 241.15C126.82 242.24 126.52 243.59 126.2 244.87C125.8 246.66 125.53 248.5 125.52 250.34C125.49 251.82 125.74 253.29 126.03 254.73C126.35 256.62 126.91 258.47 127.69 260.22C128.99 263.29 130.7 266.21 133.02 268.63C133.13 268.75 133.24 268.86 133.35 268.97C133.42 269.3 133.48 269.63 133.54 269.97C134.13 273.34 134.51 276.74 134.88 280.15C132.66 279.57 126.57 278.63 120.84 280.05C115.38 281.41 110.82 284.27 105.61 289.37C102.9 292.02 100.41 295.76 98.71 298.36C94.6 304.49 91.38 311.17 88.7 318.04C86.44 323.8 84.64 329.75 83.34 335.81C82.44 340.41 81.91 345.08 81.66 349.76C80.95 361.95 82.52 374.39 87.15 385.74C90.11 393.23 94.45 400.12 99.61 406.29C102.8 410.05 106.15 413.72 110.12 416.67C113.44 419.2 117.05 421.31 120.71 423.29C123.9 424.98 127.25 426.36 130.59 427.71C135.37 429.59 140.28 431.14 145.26 432.37C149.67 433.36 154.13 434.12 158.61 434.68C167.58 435.86 176.67 435.74 185.66 434.84C191.24 434.29 196.81 433.43 202.22 431.94C205.47 431.06 208.61 429.82 211.72 428.54C215.31 427.06 218.72 425.21 222.03 423.19C229.26 418.83 235.5 412.95 240.84 406.43C243.13 403.5 245.26 400.42 247.2 397.25C248.85 394.43 250.31 391.5 251.7 388.54C253.19 385.33 254.68 382.12 255.86 378.78C258.11 372.32 259.63 365.6 260.49 358.82C260.95 355.09 261.17 351.33 260.92 347.57L260.96 347.44ZM32.9 178.94C32.97 176.8 33.74 174.53 34.73 172.23C35.32 170.67 36.31 169.11 36.13 167.37C35.52 165.02 32.43 165.06 30.47 165.12C27.6 165.18 24.75 165.54 21.88 165.57C17.47 165.66 12.65 164.82 9.23 162.38C8.05 161.58 7.6 160.98 6.74 159.84C6.1 158.99 5.43001 158.05 5.17 157.38C4.39001 155.68 4.12001 154.5 3.88001 152.79C3.72001 151.87 3.59 150.94 3.56 150C3.45001 147.09 4.24 144.24 6.24 142C9.65 137.57 15.56 135.19 20.95 134.44C24.1 133.99 27.29 134.01 30.47 134.11C32.43 134.15 34.73 134.21 36.17 132.64C37.58 131.26 37.42 129.17 37.39 127.36C37.34 125.03 37.41 123.37 37.84 121.01C38.21 118.93 38.9 117.38 40.36 116.31C41.64 115.31 42.4 114.93 43.84 114.81C46.12 114.49 47.86 114.69 50.24 115.02C53.65 115.58 56.26 116.4 59.35 117.68C61.63 118.64 63.8 119.71 65.5 120.99C68.15 122.93 69.62 125.19 71.84 127.67C73.76 129.76 75.98 131.58 78.56 132.79C81.57 134.22 85.34 135.47 87.68 137.17C90.87 139.24 93.52 142.1 96.99 143.76C99.29 145.05 103.21 146.23 103.12 147.8C103.12 147.94 103.16 148.92 102.46 150.28C102.38 150.2 102.27 150.12 102.14 150.04C101.24 149.43 100.26 148.96 99.23 148.61C96.67 147.7 93.97 147.3 91.26 147.3C88.4 147.22 85.51 147.64 82.89 148.82C77.3 151.47 72.32 156.82 67.23 159.26C65.11 160.17 63.42 160.57 61.29 160.74C59.22 160.99 57.11 160.92 55.07 161.41C53.16 161.78 51.38 162.68 49.82 163.82C48.57 164.61 47.56 165.72 46.92 167.06C46.03 169.05 45.92 171.36 46.58 173.42C47.5 175.96 48.33 177.6 46.96 179.68C46.72 180.06 46.44 180.41 46.12 180.73C46.01 180.82 45.72 181.07 45.63 181.13C45.16 181.48 44.66 181.78 44.17 182.08C42.86 182.88 41.76 183.31 40.03 183.82C38.28 184.3 36.22 184.56 34.1 184.79C33.21 183.15 32.89 181.16 32.91 178.96L32.9 178.94ZM69.06 192.48C68.84 192.39 68.62 192.29 68.41 192.18C68.23 192.08 68.05 191.98 67.87 191.87C67.74 191.78 67.62 191.69 67.5 191.6C67.4 191.52 67.32 191.44 67.23 191.37C68.02 190.09 68.83 188.87 69.65 187.73C72.82 183.53 76.12 179.42 79.49 175.37C82.17 172.28 85.01 169.36 87.83 166.4C90.2 163.91 92.49 161.35 94.92 158.91C96.38 157.46 97.9 156.09 99.41 154.7C99.05 155.18 98.69 155.67 98.34 156.2C96.2 159.1 93.87 161.85 91.7 164.72C88.46 168.95 85.33 173.27 82.14 177.54C80.72 179.39 79.29 181.23 77.81 183.03C75.93 185.23 74.05 187.43 72.31 189.75C71.52 190.75 70.75 191.76 69.98 192.77C69.67 192.7 69.36 192.61 69.05 192.5L69.06 192.48ZM69.31 193.66C66.59 197.3 63.97 201.02 61.32 204.72C58.64 208.5 56.02 212.31 53.32 216.07C51.07 219.33 48.46 222.86 45.75 225.66C46.72 224.34 47.69 222.97 48.54 221.74C52.96 215.51 56.99 209.03 60.79 202.41C62.75 199.1 64.68 195.55 66.67 192.27C67.2 192.72 67.79 193.1 68.44 193.37C68.72 193.48 69.01 193.57 69.31 193.66ZM96.38 155.96C94.35 157.82 92.45 159.8 90.58 161.81C86.64 166.12 82.48 170.22 78.65 174.63C76.53 177.14 74.5 179.71 72.46 182.28C70.78 184.41 69.06 186.53 67.56 188.79C67.19 189.38 66.82 189.97 66.45 190.56C66.33 190.42 66.2 190.27 66.07 190.09C65.38 189.03 64.65 187.91 63.51 187.29C61.21 186.47 58.69 187.21 56.37 187.58C50.52 188.64 45.12 190.93 39.39 189.12C39.19 189.06 39 189 38.8 188.93C38.49 188.81 38.18 188.68 37.89 188.5C37.65 188.36 37.42 188.21 37.19 188.06C36.1 187.31 35.45 186.75 34.78 185.82C35.9 185.69 37.02 185.54 38.13 185.36C40.66 184.94 43.13 184.09 45.28 182.68C47.72 181.35 49.42 178.62 48.62 175.82C48.25 174.33 47.43 172.92 47.37 171.78C47.02 169 47.86 166.68 49.82 165.17C54.48 161.48 57.63 162.43 63.36 161.58C68.01 160.83 71.54 158.01 75.19 155.25C80.87 150.95 84.33 148.08 91.54 148.37C94.21 148.37 97.67 148.95 100.24 150.19C100.86 150.46 101.28 150.79 101.56 150.95C101.55 150.97 101.54 150.99 101.53 151.02C101.49 151.06 101.43 151.15 101.39 151.2C101.09 151.55 100.75 151.88 100.43 152.21C99.12 153.49 97.74 154.7 96.39 155.95L96.38 155.96ZM100.7 193.38C102.23 195.18 103.37 197.26 104.47 199.34C104.32 199.06 104.54 199.47 104.6 199.59C104.81 200.02 105 200.45 105.18 200.9C105.61 202.03 106.07 203.39 106.17 203.89C106.44 205.2 106.45 206.92 106.39 207.77C106.09 210.13 105.63 211.79 104.38 213.75C103.58 215.15 102.55 216.38 101.47 217.28C100.63 218.02 99.74 218.7 98.74 219.2C95 221.2 91 220.82 86.37 220.25C84.99 220.15 83.57 219.97 82.24 220.44C80.83 221 79.59 222.04 78.72 223.28C77.46 225.38 76.99 227.87 76.49 230.24C75.98 232.82 75.47 235.27 74.68 237.43C73.94 239.48 73.01 241.44 71.83 243.28C70.78 244.94 69.9 246.28 68.3 247.83C67.1 249.03 66.39 249.59 64.7 250.51C63.71 251.14 62.77 251.37 61.23 251.5C55.34 251.1 52.08 244.6 44.21 247.94C41.7 249.02 39.73 251.04 37.77 252.9C35.76 254.84 34.14 256.34 31.7 258.05C28.02 260.47 23.82 261.79 19.46 260.45C17.46 259.76 14.7 258.57 14.14 256.29C13.5 254.29 13.75 252.25 14.13 249.83C14.49 247.28 14.98 244.76 15.29 242.2C15.65 239.07 16.13 235.65 14.79 232.68C14.42 231.87 13.89 231.13 13.15 230.61C12.5 230.16 11.78 229.84 11.06 229.52C8.06001 228.12 4.72001 228.05 2.64001 226.16C1.56001 225.07 1.21 224.64 1.18 223.03C1.15 222.11 1.13 222.01 1.27 221.18C1.34 220.86 1.42 220.54 1.52 220.23C1.5 220.28 1.49 220.32 1.47 220.37C1.89 219.02 2.32 218.49 3.32 217.5C4.81001 216.06 8.25 215.28 10.94 214.43C12.94 213.82 15.03 213.18 16.65 211.8C17.41 211.18 18.32 210.42 18.37 209.36C18.32 207.18 16.89 205.31 15.46 203.78C15.12 203.43 14.78 203.09 14.44 202.74C14.33 202.63 14.22 202.51 14.11 202.4C14 202.29 13.9 202.18 13.79 202.06C13.82 202.1 13.86 202.13 13.89 202.17C13.25 201.51 12.73 200.29 12.71 200.08C12.28 197.78 12.39 196.47 13.38 194.69C14.33 192.89 15.5 191.89 17.24 190.58C19.22 189.22 21.34 188.47 23.86 187.69C26.82 186.71 30.18 186.37 33.56 185.98C34.33 187.14 35.31 188.15 36.49 188.9C37.24 189.42 38.03 189.88 38.92 190.12C43.79 191.75 48.89 190.39 53.7 189.22C55.13 188.92 56.3 188.65 57.95 188.37C59.23 188.17 60.52 187.94 61.82 188.01C62.13 188.03 62.44 188.07 62.75 188.16C62.71 188.15 62.66 188.13 62.62 188.12C62.91 188.19 63.18 188.32 63.42 188.5L63.31 188.43C63.47 188.56 63.62 188.69 63.76 188.83C63.86 188.9 64.08 189.17 63.9 188.96C64.05 189.13 64.21 189.3 64.35 189.48C64.81 190.08 65.16 190.77 65.69 191.32C65.75 191.38 65.8 191.44 65.86 191.51C62.44 197.13 59.31 202.94 55.88 208.56C52.66 213.92 49.21 218.94 45.43 224.25C44.49 225.54 43.52 226.8 42.52 228.05C42.24 228.39 41.96 228.73 41.67 229.06C41.51 229.25 41.36 229.46 41.37 229.72C41.39 230.07 41.78 230.33 42.11 230.2C42.82 229.88 43.39 229.32 44 228.84C46.05 227.1 47.88 225.12 49.57 223.03C51.68 220.47 53.51 217.69 55.45 215C58.79 210.28 62.09 205.53 65.47 200.83C67.09 198.51 68.77 196.22 70.48 193.96C71.31 194.11 72.15 194.16 72.99 194.1C78.31 193.66 82.86 190.34 86.43 186.57C88.36 184.53 90 182.24 91.77 180.06C92.23 179.47 92.66 178.95 93.1 178.47C92.78 179.76 92.73 181.05 93.07 182.31C94.42 186.7 97.87 189.94 100.71 193.41L100.7 193.38ZM93.9 176.18C93.3 176.7 92.72 177.24 92.21 177.85C90.31 180.07 88.59 182.44 86.7 184.67C85.25 186.32 83.78 187.74 82.29 188.93C78.93 191.49 75.14 193.38 71.22 192.95C72.64 191.09 74.08 189.25 75.54 187.42C77.19 185.41 78.93 183.48 80.51 181.43C83.87 177.21 86.95 172.79 90.22 168.5C94.01 163.35 98.19 158.49 101.84 153.24C101.55 155.87 101.72 158.56 101.47 160.81C101.3 162.73 100.91 164.83 100.33 166.22C99.58 167.91 98.8 168.88 97.61 170.44C96.34 172.05 94.87 174.05 93.9 176.18ZM109.59 154.17C108.78 153.72 107.97 154.34 107.77 155.16C107.19 157.21 107.83 159.37 107.83 161.46C107.92 163.63 107.71 165.89 106.89 167.81C106.35 168.9 105.64 169.72 104.68 170.43C103.23 171.44 100.85 171.76 98.9 172.64C97.94 173.08 97.06 173.68 96.21 174.32C97.1 172.91 98.11 171.67 99.27 170.14C100.07 169.07 100.82 167.97 101.35 166.74C101.86 165.57 102.09 164.29 102.34 163.05C102.73 160.77 102.73 158.44 102.8 156.13C102.83 154.76 102.89 152.67 103.35 151.51C104.22 149.68 105.84 148.3 107.55 148.77C109.08 149.21 110 152.64 110.84 155.3C110.48 154.86 110.09 154.45 109.59 154.18V154.17ZM120.19 156.53C119.95 157.25 119.82 157.99 119.78 158.75C119.76 158.24 119.78 157.77 119.87 157.33C120.26 154.69 122.12 151.6 123.92 150.16C125.94 148.62 128.26 147.85 131.07 147.22C133.26 146.7 136.18 146.14 138.9 145.91C141.93 145.66 144.16 145.91 147.15 146.5C152.01 147.35 155.98 148.78 160.45 150.52C167.19 153.33 173.94 156.11 180.53 159.26C183.77 160.81 186.99 162.41 190.25 163.92C192.33 164.88 194.46 165.74 196.55 166.67C199.54 167.97 202.67 168.92 205.79 169.85C206.16 169.96 206.42 170.04 206.64 170.11C205.67 170.21 204.07 170.24 203.3 170.11C201.07 169.87 198.33 169.14 197 168.64C191.15 166.67 185.78 163.57 180.15 161.1C174.11 158.46 167.89 156.28 161.72 153.98C157 152.33 152.28 150.65 147.48 149.23C144.44 148.32 141.33 147.61 138.17 147.28C135.21 146.88 132.18 147.01 129.34 147.95C125.3 149.24 121.65 152.53 120.21 156.54L120.19 156.53ZM120.22 134.5C120.01 134.69 119.8 134.88 119.58 135.07C119.15 135.45 118.48 136.05 117.91 136.57C118.2 135.9 118.53 135.19 118.86 134.45C119.72 132.48 124.78 122.03 126.43 118.77C127.83 116.02 129.43 113.37 131 110.71C133.85 105.9 136.72 101.73 140.02 97.04C144.23 91.05 148.54 85.13 152.94 79.27C159.23 70.74 165.82 62.41 173.2 54.79C176.09 51.92 178.26 50.1 181.39 47.32C191.97 37.72 202.98 28.56 214.82 20.54C212.99 22.36 211.48 23.7 209.66 25.31C203.45 30.52 197.43 35.96 191.34 41.31C186.26 45.66 181.23 50.07 176.61 54.9C170.59 61.2 164.65 67.58 158.93 74.15C156.41 77.1 153.91 80.08 151.67 83.25C149.05 86.95 146.33 90.58 143.57 94.17C140.46 98.09 137.76 102.31 135.2 106.6C133.73 108.98 132.33 111.4 130.91 113.81C130.13 115.22 129.38 116.66 128.54 118.05C127.54 119.72 126.65 121.45 125.64 123.11C123.7 126.28 120.68 133.2 120.24 134.5H120.22ZM117.6 131.72C117.96 129.81 118.52 127.3 119 125.97C119.38 124.78 120.01 123.69 120.41 122.52C120.65 121.37 120.62 120.18 120.66 119.02C120.69 117.46 120.68 115.9 120.56 114.35C120.3 111.98 119.63 109.68 119.27 107.33C118.83 104.33 118.75 101.98 119.16 99.18C119.35 97.91 119.7 96.5 119.99 95.72C120.74 93.83 121.66 92.01 122.25 90.05C123.59 85.99 123.94 81.69 123.95 77.44C123.78 72.24 123.01 67.08 122.79 61.89C122.72 57.37 122.95 53.57 124.11 49.08C124.78 46.6 125.4 44.31 126.91 42.55C127.92 41.51 128.78 40.72 129.83 40.95C131.4 41.16 132.92 43.27 134.58 44.77C135.41 45.52 136.41 46.16 137.53 46.31C138.26 46.36 139.04 46.43 139.73 46.15C140.88 45.63 141.58 44.47 142.05 43.35C143.6 38.99 143.76 34.3 144.52 29.77C145.11 25.87 146.11 22.33 147.49 18.96C148.17 17.51 148.82 16 149.81 15C151.57 13.16 154.93 11.31 157.37 10.99C160.45 10.87 162.84 12.75 165.56 15.12C167.65 16.87 169.7 18.05 172.44 16.99C173.24 16.7 173.88 16.11 174.5 15.54C175.34 14.73 176.11 13.84 176.81 12.9C178.12 11.15 179.12 9.18999 180.3 7.71999C180.61 7.37999 180.91 7.02999 181.24 6.70999C181.31 6.64999 181.4 6.56999 181.45 6.52999C181.56 6.43999 181.66 6.34999 181.77 6.26999C182.2 5.93999 182.63 5.60999 183.07 5.28999C183.31 5.10999 183.55 4.92999 183.81 4.77999C183.94 4.69999 184.08 4.61999 184.22 4.54999C184.63 4.34999 185.05 4.15999 185.47 3.97999C185.68 3.88999 185.89 3.81999 186.11 3.73999C186.34 3.66999 186.56 3.59999 186.79 3.54999C189.18 3.06999 191.05 3.05999 192.5 4.34999C196.6 7.99999 197.47 11.16 203.79 9.55999C208.29 8.31999 212.19 5.08999 216 3.32999C219.9 1.41999 225.19 -0.0600073 227.54 2.33999C228.21 3.08999 228.12 4.12999 228.49 5.48999C228.88 7.33999 229.5 9.77999 229.48 11.22C229.31 13.77 228.47 15.59 227.16 17.85C225.75 20.28 224.19 22.38 222.53 24.91C221.46 26.62 219.95 28.54 220.32 30.68C220.44 31.59 221.08 32.38 221.83 32.88C222.83 33.5 223.81 33.73 224.45 34.42C224.59 34.58 224.71 34.75 224.82 34.94C225.28 35.75 225.36 35.99 225.47 36.89C225.52 37.82 225.43 37.83 225.14 38.67C224.62 39.97 224.29 40.46 223.45 41.52C223.02 42.04 221.39 43.54 221.3 43.62C219.72 45.04 218.06 46.38 216.59 47.92C215.44 49.2 214.44 50.6 213.61 52.1C213.2 52.83 212.91 53.65 212.84 54.49C212.8 55.78 213.29 57.04 214.05 58.06C215.36 59.72 216.52 60.6 217.55 62.53C217.59 62.62 217.65 62.77 217.69 62.83C217.84 63.15 217.96 63.48 218.08 63.81C218.13 63.95 218.18 64.09 218.21 64.24C218.32 65.36 218.18 66.37 217.92 67.16C217.44 68.43 216.84 69.13 215.8 70.19C215.02 70.91 214.13 71.75 212.91 72.47C210.02 74.29 206.16 75.59 202.92 76.08C200.82 76.4 198.68 76.38 196.56 76.42C194.44 76.42 192.25 76.54 190.37 77.61C189.28 78.11 188.13 78.67 187.44 79.69C187.07 80.2 186.79 80.76 186.53 81.33C186.09 82.2 185.75 83.12 185.73 84.1C185.5 86.34 186.68 88.36 187.51 90.36C188.16 92 188.28 92.64 187.79 94.4C187.07 97.14 184.43 99.89 181.62 101.06C178.96 102.13 176.88 102.53 174.25 102.88C171.92 103.15 169.56 103.2 167.24 103.61C164.78 104.05 162.31 104.64 160.09 105.83C157.41 107.27 155.56 108.59 152.78 109.56C151.21 110.09 149.94 110.28 148.09 110.57C143.04 111.33 138.16 113.76 134.72 117.56C132.28 120.55 130.85 123.84 128.55 126.56C126.5 129.09 124.34 130.96 122.02 132.95C123.71 127.94 126.1 124.24 128.63 120C129.86 117.94 130.99 115.83 132.16 113.74C136.2 107.03 139.72 100.75 144.51 94.71C146.23 92.4 148.05 90.16 149.7 87.8C152.29 84.19 154.86 80.58 157.74 77.2C161.93 72.16 166.38 67.34 170.85 62.53C175.36 57.68 179.9 52.84 184.83 48.41C186.98 46.45 190.46 43.51 193.05 41.24C196.55 38.16 200 35.02 203.52 31.97C208.59 27.58 213.79 23.34 218.39 18.44C218.61 18.22 218.83 17.99 219.06 17.78C219.08 17.76 219.11 17.73 219.15 17.69C219.54 17.43 219.97 17.22 220.28 16.88C220.51 16.62 220.41 16.17 220.09 16.02C219.73 15.88 219.37 16.09 219.09 16.32C218.87 16.51 218.65 16.7 218.43 16.9C217.49 17.54 216.54 18.17 215.6 18.81C204.04 26.41 193.32 35.21 182.99 44.39C179.48 47.55 175.84 50.57 172.47 53.89C165.44 61.13 159.1 69.01 153.1 77.11C148.04 83.85 143.06 90.64 138.24 97.56C132.66 105.49 127.46 113.8 123.39 122.61C122.46 124.65 121.45 126.66 120.45 128.66C120.38 128.85 120.25 129.04 120.18 129.23C118.99 131.6 117.84 134 116.81 136.45C116.72 136.74 116.59 137.03 116.48 137.32C116.87 135.46 117.24 133.6 117.58 131.72H117.6ZM105.85 131.92C105.92 132.44 105.94 132.84 105.89 132.98C105.86 133.06 105.76 133.24 105.76 133.26C105.75 133.28 105.73 133.3 105.72 133.31C104.51 133.03 103.35 131.15 102.27 129.53C100.71 127.16 99.32 124.68 97.93 122.21C97.62 121.67 97.31 121.12 96.99 120.58C100.05 124.27 103.09 127.98 105.85 131.91V131.92ZM143.11 228.16C142.74 226.9 142.38 225.65 142 224.4C141.12 221.48 139.92 218.67 138.63 215.9C137.58 213.6 136.5 211.31 135.27 209.09C133.43 205.53 131.23 202.19 129.13 198.79C126.9 195.04 125.18 191.77 123.47 187.88C121.24 182.96 119.61 177.8 117.95 172.67C116.92 169.66 115.79 166.68 114.6 163.73C114.6 163.68 114.59 163.62 114.57 163.56C114.2 162.47 113.86 161.36 113.52 160.26C113.6 160.32 113.69 160.38 113.78 160.43C115.54 161.07 115.47 158.33 115.42 157.24C115.38 156.26 115.15 155.29 114.87 154.35C113.67 150.32 111.77 146.53 109.63 142.92C108.01 140.15 106.27 137.42 104.03 135.1C102.77 133.79 101.43 132.5 99.8 131.66C97.52 130.52 94.9 130.65 92.48 130.02C88.72 129.07 85.21 127.62 81.7 125.46C77.52 122.92 73.38 119.78 68.86 117.15C64.53 114.77 59.9 112.87 55.11 111.64C45.89 109.33 35.91 108.74 28.59 103.13C26.4 101.48 24.38 99.65 24.72 97.64C24.58 96.73 25.65 95.42 25.9 94.94C27.41 92.72 29.26 91.71 30.98 89.73C32.84 87.67 32.53 84.5 30.55 82.63C27.77 79.72 23.58 79.01 20.3 76.87C19.94 76.64 19.61 76.37 19.3 76.08C19.1 75.89 18.91 75.7 18.73 75.49C18.28 74.99 17.84 74.48 17.53 73.88C17.41 73.65 17.31 73.41 17.21 73.17C17.12 72.95 17.04 72.73 16.98 72.51C16.92 72.22 16.89 71.93 16.91 71.64C16.92 71.49 16.94 71.33 16.97 71.18C16.99 71.04 17.03 70.91 17.07 70.77C17.74 69.25 18.94 68.36 20.49 67.26C22.49 65.82 24.78 64.85 26.8 63.44C30.52 60.98 28.6 56.93 28.91 53.3C28.91 53.34 28.91 53.39 28.91 53.43C28.94 53.13 28.99 52.84 29.05 52.55C29.11 52.24 29.19 51.94 29.28 51.64C29.35 51.44 29.42 51.24 29.5 51.05C29.65 50.66 29.85 50.29 30.05 49.93C30.54 48.96 31.03 48.53 31.8 47.87C34.3 45.94 37.72 44.84 40.56 45.12C42.43 45.37 44.19 46.17 46.08 46.32C47.24 46.45 48.44 46.42 49.57 46.14C51.34 45.61 53.04 44.88 54.71 44.1C58.37 42.36 61.76 41.23 65.65 41.01C68.95 40.93 70.14 41.49 71.4 44.37C71.89 45.46 72.35 46.57 72.74 47.7C73.29 49.22 73.85 51.29 75.6 51.81C76.45 52.06 77.24 51.5 77.93 51.08C79.45 50.22 80.66 48.96 81.9 47.76C83.58 46.06 84.78 44.79 86.55 43.42C87.72 42.4 88.97 41.92 90.05 41.76C91.15 41.61 91.43 41.63 92.52 41.89C94.24 42.38 95.23 43.11 95.69 45.08C96.27 47.19 95.62 50.52 94.9 53.41C94.57 55.21 93.64 58.44 94.99 59.96C97.91 63.06 103.17 57.81 104.11 62.28C104.82 64.9 103.89 68.29 103.13 70.38C102.2 73.06 101.04 75.65 99.92 78.25C99.24 79.83 98.56 81.42 98.04 83.06C97.83 83.71 97.61 84.37 97.49 85.04C97.42 85.7 97.57 86.37 97.77 86.99C99.22 89.83 101.69 88.85 101.35 91.87C101.37 92.87 100.83 94.56 100.35 95.8C98.23 101.31 95.88 107.03 96.05 113.03C96.16 114.51 97.59 115.48 98.99 115.55C99.49 115.6 99.99 115.59 100.49 115.61C100.67 115.61 100.77 115.63 100.54 115.61C101.27 115.71 101.32 115.69 101.92 116.02C102.62 116.55 102.8 116.98 103.17 118.05C103.79 119.77 103.93 120.91 104.25 122.78C104.53 124.57 104.79 126.37 105.17 128.15C105.23 128.43 105.31 128.77 105.38 129.14C102.95 125.84 100.3 122.68 97.67 119.54C95.84 117.34 94.03 115.12 92.23 112.89C89.84 109.2 87.39 105.54 85.04 101.83C81.16 95.6 77.24 89.37 72.51 83.74C70 80.71 67.53 77.65 64.89 74.75C62.34 72.01 59.69 69.37 56.9 66.86C55.63 65.77 54.41 64.55 52.92 63.76C52.45 63.55 51.65 63.66 51.69 64.31C51.76 65.09 52.33 65.74 52.75 66.38C55 69.37 58.65 72.3 60.7 74.77C63.15 77.54 65.36 80.52 67.63 83.43C71.34 88.19 74.83 93.12 78.64 97.8C82.76 102.62 86.47 107.77 90.5 112.66C90.92 113.2 91.35 113.73 91.78 114.27C94.08 117.85 96.31 121.47 98.34 125.2C99.29 126.9 100.31 128.56 101.36 130.19C102.08 131.28 102.76 132.42 103.71 133.32C105.12 134.84 106.49 134.77 106.9 133.46C107.82 134.82 108.63 136.18 109.16 137.37C110.07 139.33 110.65 141.41 111.44 143.42C111.83 144.22 112.62 146.92 113.67 146.74C114.94 146.61 115.1 143.72 115.38 142.7C115.68 141.23 115.99 139.76 116.3 138.29V138.31C116.35 138.64 116.76 138.82 117.07 138.72C117.48 138.52 117.77 138.14 118.12 137.85C118.09 137.88 118.05 137.91 118.02 137.94C118.53 137.48 119.03 137.03 119.54 136.58C118.97 138.31 118.41 140.07 117.84 141.94C117.42 143.3 117.17 144.71 116.82 146.09C116.52 147.13 116.35 147.48 116.01 148.61C115.81 149.19 115.78 149.99 116.29 150.42C117.12 150.9 118.08 150.25 118.71 149.71C119.96 148.65 120.87 147.29 121.81 145.98C123.01 144.3 124.26 142.66 125.65 141.13C130.32 135.87 135.04 131.73 140.8 127.7C143.65 125.72 146.66 123.98 149.73 122.36C151.91 121.25 153.86 120.08 156.46 119.21C158.1 118.7 159.63 118.4 161.01 118.63C162.23 118.88 163.42 119.35 164.69 119.26C166.37 119.14 167.96 118.46 169.48 117.79C171.33 116.94 173.16 116.06 175.03 115.24C178.96 113.58 183.04 112.45 186.85 111.81C188 111.62 189.16 111.59 190.32 111.62C191.84 111.63 192.91 111.75 194.61 112.22C195.01 112.36 195.39 112.53 195.78 112.71C196.53 113.09 197.1 113.35 197.62 113.76C198.86 114.57 199.8 115.9 200.2 116.59C200.32 116.81 200.42 117.04 200.51 117.29C200.59 117.48 200.65 117.68 200.7 117.89C200.72 118.04 200.73 118.19 200.73 118.35C200.73 118.51 200.73 118.67 200.73 118.83C200.69 119.46 200.62 120.09 200.4 120.69C199.84 122.85 197.46 125.57 195.75 128.05C194.95 129.19 194.27 130.42 193.63 131.66C193 132.94 192.34 134.25 192.16 135.68C191.98 137 191.76 138.47 192.38 139.71C193.05 141.01 194.47 141.66 195.85 141.9C196.9 142.15 197.99 142.22 199.07 142.13C202.31 141.91 205.48 141.18 208.7 140.81C211.91 140.46 215.18 140.28 218 140.74C219.33 141.03 219.91 141.21 221.14 141.8C222.37 142.39 223.07 142.71 224.05 143.52C225.72 144.73 226.84 146.82 227.13 148.53C227.47 150.67 227.17 152.07 226.38 153.95C225.37 156.56 223.62 158.18 222.36 160.84C221.66 162.12 221.36 163.56 221.38 165.01C221.45 166.79 221.94 168.53 221.96 170.31C222.01 173.04 220.09 175.9 217.87 176.55C216.49 176.97 214.49 175.89 212.66 176.15C209.49 176.19 207.05 178.44 204.92 180.53C200.67 184.86 195.47 187.98 189.3 188.53C187.09 188.71 184.99 188.69 183.15 188.49C180.77 188.25 179.13 187.67 177.02 186.5C173.24 184.57 172.06 180.48 169.41 176.78C168.54 175.74 167.32 174.78 165.92 174.66C164.76 174.62 163.8 175.37 162.99 176.11C161.75 177.27 160.89 178.13 159.34 179.12C157.26 180.4 155.27 181.37 152.72 182.14C149.44 183.13 146.21 183.69 142.54 183.61C140.17 183.51 137.2 183.16 135.4 181.19C135.26 181.03 135.12 180.87 134.99 180.7C134.84 180.5 134.69 180.3 134.55 180.09C134.31 179.72 134.06 179.36 133.85 178.97C133.05 177.15 132.47 175.29 132.21 173.66C131.67 170.53 131.75 167.36 131.72 164.2C131.7 162.89 131.72 161.56 131.48 160.26C131.34 159.08 130.4 158 129.16 158C126.7 157.99 123.43 160.35 121.96 160.38C119.34 160.68 121.09 152.23 129.14 149.36C132.27 148.25 135.03 148.15 138.25 148.54C143 149.03 147.6 150.42 152.13 151.89C157.41 153.61 163.41 155.73 169.02 157.87C172.42 159.12 175.81 160.41 179.14 161.87C181.98 163.1 184.73 164.51 187.54 165.82C193.67 168.7 200.23 171.79 207.18 171.08C207.53 171.03 207.9 171 208.21 170.8C208.55 170.59 208.65 170.1 208.33 169.82C207.98 169.46 207.46 169.34 207 169.17C207.24 169.25 206.97 169.16 206.84 169.12C206.24 168.92 205.63 168.74 205.02 168.56C201.73 167.57 198.61 166.47 195.26 164.93C190.35 162.89 185.6 160.48 180.81 158.19C174.14 155.02 167.32 152.19 160.5 149.36C156.06 147.63 151.52 146.06 146.8 145.28C143.23 144.52 139.54 144.48 135.95 145.08C133.79 145.41 131.65 145.84 129.53 146.36C127.74 146.71 124.95 147.56 123.05 149.04C115.31 155.06 119.83 169.82 120.52 172.18C121.28 174.79 122.31 177.32 123.17 179.89C124.33 183.14 125.74 186.3 127.09 189.48C128.16 192.02 129.43 194.46 130.61 196.95C132.34 200.62 133.96 204.35 135.89 207.92C137.74 211.37 139.56 214.84 141.61 218.19C142.4 219.48 143.1 220.85 143.98 222.08C143.59 224.12 143.3 226.17 143.12 228.24L143.11 228.16ZM84.68 103.37C84.1 102.63 83.53 101.9 82.96 101.16C81.51 99.33 79.97 97.58 78.51 95.76C77.17 94.09 75.92 92.36 74.62 90.66C70.31 85.08 66.19 79.33 61.57 73.99C59.96 72.15 58.19 70.46 56.43 68.76C55.42 67.79 54.98 67.29 54.07 66.19C53.91 65.99 53.75 65.78 53.6 65.57C54.68 66.38 55.87 67.51 56.91 68.43C61.3 72.45 64.92 76.31 68.57 80.77C71.04 83.73 73.51 86.7 75.79 89.81C78.97 94.18 81.77 98.81 84.67 103.36L84.68 103.37ZM144.92 237.21C146.72 241.93 148.85 246.54 151.37 250.91C153.37 254.44 155.88 257.64 158.55 260.67C159.81 262.03 161.04 263.49 162.63 264.47C164.36 265.49 166.77 265.7 168.26 264.15C169.34 263.1 169.63 261.56 169.84 260.12C170.05 258.64 170.16 257.14 170.28 255.65C170.48 252.93 170.48 250.2 170.55 247.48C170.57 246.13 170.59 245.29 170.73 244.13C170.8 243.58 170.84 243.36 171 243.07C171 243.07 171 243.07 171.01 243.06C171.36 243.27 171.55 243.78 171.81 244.29C172.5 245.71 173.12 248.13 173.35 249.18C174.24 253.66 174.46 258.43 173.98 262.58C173.68 264.58 172.96 266.39 171.42 267.38C164.32 271.03 149.97 266.41 145.93 251.55C145.24 248.99 144.87 246.83 144.51 244.03C144.16 240.72 143.94 237.55 143.93 234.41C144.24 235.35 144.57 236.29 144.92 237.22V237.21ZM171.78 223.32C165.73 223.85 159.76 225.46 153.66 225.32C150.06 225.03 147.29 224.47 145.12 221.73C146.4 215.27 148.96 209.22 152.97 204.21C155.6 201.02 158.24 198.35 161.67 196.83C163.54 195.97 165.31 195.46 167.04 195.28C168.82 195.08 169.91 195.16 171.69 195.74C173.29 196.31 175.64 197.57 177.2 199.28C180.04 202.19 182.43 206.32 183.81 210.44C185.17 214.61 185.98 219.01 186.55 223.51C181.67 222.81 176.68 222.81 171.79 223.31L171.78 223.32ZM182.07 265.9C181.39 266.22 179.88 266.18 180.29 263.36C180.68 260.87 181.64 259.14 182.96 256.9C184.13 255.16 185.65 253.44 187.42 251.78C187.62 251.61 187.8 251.45 187.98 251.29C187.48 263.23 182.19 265.87 182.06 265.9H182.07ZM132.65 266.14C130.9 263.95 129.98 262.14 128.89 259.68C128.1 257.84 127.6 256.3 127.32 254.62C127.1 253.5 126.87 252.38 126.81 251.24C126.68 248.56 127.11 245.97 127.96 243.09C128.04 242.87 128.12 242.66 128.22 242.45C128.26 242.36 128.31 242.27 128.36 242.18C128.39 242.11 128.48 241.96 128.52 241.89C128.61 241.76 128.71 241.64 128.82 241.53C128.83 241.53 128.84 241.52 128.86 241.51C128.9 241.51 128.94 241.51 128.98 241.5C129.01 241.52 129.05 241.54 129.08 241.55C129.16 241.62 129.25 241.71 129.25 241.71C129.34 241.81 129.41 241.92 129.47 242.04C130.13 243.63 130.28 244.68 130.4 246.49C130.68 250.28 130.19 254.1 130.72 257.88C130.96 259.71 131.49 261.47 131.97 263.24C132.27 264.34 132.53 265.32 132.76 266.27C132.72 266.23 132.69 266.18 132.65 266.14ZM137.6 282.63C139.92 283.43 142.08 284.6 144.13 285.95C145.28 286.68 147.85 289.14 148.85 290.32C150.01 291.73 151.04 293.24 151.97 294.81C154.63 299.52 156.16 305.27 156.03 311.25C156 312.06 155.98 312.69 155.96 313.28C155.95 313.28 155.93 313.28 155.92 313.28C152.48 312.55 149.8 311.93 146.88 310.44C145.03 309.55 144.07 308.98 142.53 307.63C141.95 307.18 140.49 305.12 140.23 304.71C139 302.25 138.47 299.97 138.06 297.63C137.38 293.51 137.1 289.34 136.75 285.18C136.67 284.18 136.57 283.19 136.46 282.2C136.84 282.34 137.22 282.48 137.6 282.65V282.63ZM258.8 359.9C257.24 369.98 254.92 377.9 250.66 386.81C248.87 390.76 246.18 395.98 244.19 398.9C238.49 407.56 231.75 414.7 223.41 420.35C220.43 422.24 217.44 424.05 214.73 425.36C208.74 428.23 201.91 430.65 196 431.71C190.87 432.71 185.67 433.28 180.46 433.63C174.02 434.04 167.83 434.09 161.86 433.44C156.41 432.89 150.99 432.04 145.65 430.85C140.92 429.67 137.05 428.52 132.68 426.88C129.03 425.46 125.39 424 121.92 422.2C117.85 420.01 114.26 417.96 110.87 415.33C106.13 411.66 102.69 407.74 99.08 403.21C93.41 395.99 89.46 388.66 86.69 379.98C83.45 370.22 82.56 358.42 83.29 348.49C83.56 344.56 84.03 340.64 84.76 336.77C85.46 333.19 86.42 329.67 87.49 326.19C90.15 317.27 95.28 305.96 100.51 298.36C101.87 296.31 103.29 294.29 104.86 292.39C118.28 276.06 133.53 281.28 135.06 281.71C135.14 282.51 135.23 283.3 135.32 284.09C135.7 288.5 136 292.93 136.65 297.32C137.55 303.01 139.01 307.4 144.13 310.6C145.8 311.56 147.54 312.42 149.35 313.07C151.47 313.82 153.66 314.31 155.86 314.77C155.82 315.07 155.78 315.39 155.71 315.75C155.15 318.39 154.71 320.1 153.52 322.51C153.18 323.23 152.81 323.93 152.42 324.63C152.14 325.13 151.81 325.66 151.44 326.22C148.7 324 146.08 321.63 143.45 319.29C140.52 316.79 137.52 314.18 133.93 312.67C132.75 312.21 131.5 311.95 130.25 311.7C128.54 311.39 126.78 311.23 125.05 311.51C114.19 313.27 110.93 320.9 110.23 323.71C109.84 325.29 109.72 326.94 109.86 328.57C110.24 331.11 111.12 333.64 112.51 335.81C113.94 337.67 115.64 339.39 117.7 340.54C129.61 347.18 143.6 337.28 149.52 330.63C150.3 329.75 151.05 328.83 151.76 327.88C152.07 328.12 152.38 328.37 152.69 328.61C154.87 330.19 157.09 331.74 159.4 333.12C161.08 334.06 162.87 334.78 164.64 335.55C166.02 336.11 167.38 336.73 168.81 337.16C170.45 337.62 172.14 337.96 173.84 338.14C176.35 338.35 178.94 338.46 181.4 337.81C183.03 337.36 184.62 336.79 186.12 336.01C186.16 336 186.24 335.97 186.28 335.94C186.61 335.73 187.2 335.66 187.23 335.2C187.26 334.97 187.07 334.75 186.85 334.7C186.68 334.66 186.53 334.76 186.38 334.83C186.11 334.97 185.84 335.1 185.56 335.22C184.63 335.66 183.69 336.07 182.71 336.37C181.81 336.65 180.67 336.99 180.13 337.07C178.71 337.31 176.17 337.27 175.28 337.22C173 337.05 170.72 336.66 168.54 335.97C167.84 335.68 165.71 334.88 164.55 334.35C162.97 333.67 161.38 333 159.88 332.16C158.5 331.35 157.78 330.82 156.47 329.96C155.07 329.03 153.72 328.03 152.4 327C154.55 323.92 156.22 320.5 157.01 316.81C157.16 316.24 157.25 315.66 157.32 315.07C171.12 317.74 186.53 313.95 193.03 309.2C194.5 308.13 195.88 306.91 197.05 305.51C197.77 304.58 198.39 303.58 198.98 302.57C199.84 300.86 200.38 298.99 200.82 297.13C201.99 291.79 201.97 286.28 202.56 280.87C202.86 278.73 203.11 275.78 203.75 274.35C205.22 271.08 226.64 283.49 234.7 291.39C252.22 308.57 256.63 329.83 257.69 335.16C258.5 339.54 259.32 343.94 259.51 348.39C259.7 352.49 259.37 355.69 258.8 359.86V359.9ZM150.8 327.14C149.4 329.05 147.55 331.11 145.63 332.78C124.61 351.09 110.26 337.18 110.87 326.16C110.99 323.68 112.14 321.36 113.29 319.58C114.05 318.41 117.81 313.72 124.64 312.64C125.56 312.49 126.49 312.37 127.42 312.43C128.39 312.4 131.89 313.07 132.8 313.4C134.87 314.09 136.55 315.23 138.04 316.31C139.69 317.51 141.27 318.82 142.8 320.18C145.43 322.54 148.06 324.9 150.8 327.13V327.14Z" fill="black"/>
</g>
<defs>
<clipPath id="clip0_37_325">
<rect width="261.06" height="446.68" fill="white"/>
</clipPath>
</defs>
</svg>
