<svg width="29" height="18" viewBox="0 0 29 18" fill="none" xmlns="http://www.w3.org/2000/svg">
<path d="M0.983285 2H14.0938C14.3545 2 14.6046 1.89464 14.789 1.70711C14.9734 1.51957 15.077 1.26522 15.077 1C15.077 0.734784 14.9734 0.48043 14.789 0.292894C14.6046 0.105357 14.3545 0 14.0938 0H0.983285C0.722502 0 0.472399 0.105357 0.287997 0.292894C0.103596 0.48043 0 0.734784 0 1C0 1.26522 0.103596 1.51957 0.287997 1.70711C0.472399 1.89464 0.722502 2 0.983285 2Z" fill="#FCF3E4"/>
<path d="M28.1875 9C28.1875 8.73478 28.0839 8.48043 27.8995 8.29289C27.7151 8.10536 27.465 8 27.2042 8H0.983285C0.722502 8 0.472399 8.10536 0.287997 8.29289C0.103596 8.48043 0 8.73478 0 9C0 9.26522 0.103596 9.51957 0.287997 9.70711C0.472399 9.89464 0.722502 10 0.983285 10H27.2042C27.465 10 27.7151 9.89464 27.8995 9.70711C28.0839 9.51957 28.1875 9.26522 28.1875 9Z" fill="#FCF3E4"/>
<path d="M27.2041 16H14.0936C13.8329 16 13.5828 16.1054 13.3983 16.2929C13.2139 16.4804 13.1104 16.7348 13.1104 17C13.1104 17.2652 13.2139 17.5196 13.3983 17.7071C13.5828 17.8946 13.8329 18 14.0936 18H27.2041C27.4649 18 27.715 17.8946 27.8994 17.7071C28.0838 17.5196 28.1874 17.2652 28.1874 17C28.1874 16.7348 28.0838 16.4804 27.8994 16.2929C27.715 16.1054 27.4649 16 27.2041 16Z" fill="#FCF3E4"/>
</svg>
