<svg width="20" height="24" viewBox="0 0 20 24" fill="none" xmlns="http://www.w3.org/2000/svg">
<path d="M10.4372 0.739691C11.6852 0.720703 12.9242 0.730697 14.1632 0.720703C14.2017 2.20658 14.797 3.62387 15.8312 4.69207C16.9495 5.69599 18.3723 6.29626 19.8722 6.39694V10.2354C18.49 10.2017 17.1291 9.88754 15.8722 9.31201C15.3359 9.05623 14.8198 8.76025 14.3282 8.4266C14.3182 11.2078 14.3382 13.9889 14.3092 16.7601C14.2345 18.1045 13.7879 19.4018 13.0192 20.5076C12.3859 21.4229 11.5461 22.1765 10.5676 22.7075C9.58902 23.2385 8.49923 23.5321 7.3862 23.5646C6.02185 23.6264 4.66954 23.285 3.4982 22.5832C2.53471 22.0112 1.71843 21.222 1.11454 20.2786C0.51065 19.3352 0.13589 18.2638 0.0201954 17.1498C0.00119544 16.6731 -0.00880455 16.1975 0.0101955 15.7308C0.107534 14.7541 0.404495 13.8077 0.882683 12.9504C1.36087 12.0931 2.01011 11.343 2.79017 10.7466C3.57024 10.1502 4.46453 9.72019 5.41765 9.48322C6.37077 9.24626 7.36242 9.20737 8.33119 9.36897C8.35019 10.779 8.29319 12.1881 8.29319 13.5982C7.88657 13.4556 7.45575 13.3948 7.02552 13.4192C6.59528 13.4436 6.17411 13.5527 5.78622 13.7403C5.39833 13.9279 5.05137 14.1902 4.76528 14.5123C4.4792 14.8343 4.25963 15.2097 4.1192 15.6168C3.97011 16.1133 3.92484 16.6351 3.9862 17.1498C4.11032 17.9348 4.5187 18.647 5.13372 19.1508C5.74874 19.6547 6.52756 19.9153 7.3222 19.883C7.85521 19.8675 8.3759 19.7192 8.83695 19.4515C9.29801 19.1837 9.6848 18.8051 9.9622 18.35C10.1747 18.0514 10.3091 17.7044 10.3532 17.3407C10.4532 15.6358 10.4102 13.9429 10.4202 12.2361C10.4302 8.39762 10.4102 4.56915 10.4392 0.743688L10.4372 0.739691Z" fill="white"/>
</svg>
