<svg width="20" height="20" viewBox="0 0 20 20" fill="none" xmlns="http://www.w3.org/2000/svg">
<path d="M10.0002 4.86182C8.98463 4.86182 7.99183 5.16278 7.14738 5.72665C6.30294 6.29051 5.64477 7.09196 5.25612 8.02964C4.86746 8.96732 4.76577 9.99911 4.9639 10.9945C5.16204 11.99 5.6511 12.9043 6.36924 13.622C7.08739 14.3397 8.00236 14.8284 8.99845 15.0264C9.99454 15.2244 11.027 15.1228 11.9653 14.7344C12.9036 14.346 13.7056 13.6883 14.2698 12.8444C14.8341 12.0005 15.1352 11.0084 15.1352 9.99342C15.1352 8.63243 14.5942 7.32719 13.6312 6.36483C12.6682 5.40247 11.3621 4.86182 10.0002 4.86182ZM10.0002 13.3242C9.34079 13.3242 8.69616 13.1288 8.14786 12.7626C7.59957 12.3965 7.17224 11.8761 6.91993 11.2672C6.66761 10.6583 6.60165 9.98838 6.73037 9.34205C6.8591 8.69572 7.17673 8.10205 7.6431 7.63613C8.10946 7.17021 8.70362 6.85297 9.35042 6.72452C9.99722 6.59608 10.6676 6.6622 11.2768 6.91453C11.886 7.16686 12.4066 7.59406 12.7728 8.1421C13.1391 8.69014 13.3344 9.33441 13.3342 9.99342C13.3342 10.8771 12.983 11.7245 12.3577 12.3494C11.7325 12.9742 10.8845 13.3242 10.0002 13.3242Z" fill="white"/>
<path d="M19.94 5.87311C19.9237 5.04424 19.7668 4.22413 19.476 3.44772C19.2245 2.78125 18.8311 2.17737 18.323 1.67789C17.8237 1.1695 17.2193 0.776257 16.552 0.525652C15.7751 0.234821 14.9544 0.0780251 14.125 0.061959C13.058 0.0119921 12.717 0 10 0C7.283 0 6.943 0.0109928 5.876 0.0609597C5.04658 0.077219 4.22593 0.234009 3.449 0.524653C2.78226 0.775703 2.17826 1.1689 1.679 1.67689C1.16959 2.1759 0.775703 2.78033 0.525 3.44772C0.234164 4.22413 0.0772702 5.04424 0.0610001 5.87311C0.0120001 6.9384 0 7.27918 0 9.99338C0 12.7076 0.0110001 13.0484 0.0610001 14.1136C0.0772895 14.9425 0.234182 15.7626 0.525 16.539C0.775598 17.2059 1.16913 17.81 1.678 18.3089C2.17798 18.8172 2.78263 19.2107 3.45 19.4621C4.22696 19.7527 5.04759 19.9094 5.877 19.9258C6.944 19.9748 7.285 19.9868 10 19.9868C12.715 19.9868 13.057 19.9758 14.123 19.9258C14.9524 19.9095 15.7731 19.7528 16.55 19.4621C17.2144 19.2054 17.8178 18.8127 18.3215 18.3094C18.8252 17.806 19.2181 17.203 19.475 16.539C19.7662 15.7627 19.9231 14.9426 19.939 14.1136C19.988 13.0474 19.999 12.7076 19.999 9.99338C19.999 7.27918 19.988 6.9384 19.94 5.87311ZM18.14 14.0317C18.1338 14.6658 18.0188 15.2942 17.8 15.8895C17.6337 16.3211 17.3787 16.7131 17.0514 17.0401C16.7241 17.3672 16.3319 17.622 15.9 17.7882C15.3053 18.0085 14.6772 18.1248 14.043 18.132C12.989 18.18 12.672 18.1899 10.002 18.1899C7.332 18.1899 7.016 18.18 5.962 18.132C5.32616 18.1253 4.69625 18.009 4.1 17.7882C3.66574 17.6278 3.27283 17.3724 2.95 17.0407C2.61835 16.7177 2.36372 16.3242 2.205 15.8895C1.98453 15.2952 1.86816 14.6674 1.861 14.0337C1.813 12.9784 1.8 12.6626 1.8 9.99338C1.8 7.32415 1.81 7.00936 1.858 5.95506C1.86672 5.32055 1.98408 4.69221 2.205 4.09729C2.36553 3.6633 2.6211 3.27065 2.953 2.94805C3.2742 2.61535 3.66622 2.35919 4.1 2.19854C4.69585 1.97928 5.32507 1.86434 5.96 1.85877C7.014 1.8098 7.331 1.79881 10 1.79881C12.669 1.79881 12.986 1.8088 14.041 1.85677C14.6756 1.8639 15.3044 1.9795 15.9 2.19854C16.3319 2.3647 16.7242 2.61953 17.0515 2.94658C17.3787 3.27363 17.6337 3.66564 17.8 4.09729C18.0204 4.69155 18.1368 5.31932 18.144 5.95306C18.189 7.00936 18.2 7.32515 18.2 9.99338C18.2 12.6616 18.19 12.9774 18.142 14.0317H18.14Z" fill="white"/>
</svg>
