<svg width="24" height="26" viewBox="0 0 24 26" fill="none" xmlns="http://www.w3.org/2000/svg">
<path d="M10.1547 19.8431C12.126 19.8446 14.0381 19.1416 15.5717 17.8514L20.8997 23.4014C21.0756 23.584 21.3138 23.6864 21.5622 23.6861C21.8105 23.6859 22.0485 23.583 22.2241 23.4001C22.3997 23.2172 22.4984 22.9692 22.4987 22.7106C22.4989 22.4519 22.4006 22.2037 22.2254 22.0205L16.8974 16.4705C18.1243 14.8772 18.7951 12.897 18.7998 10.8545C18.8045 8.81195 18.1429 6.82836 16.9234 5.22892C15.7039 3.62948 13.9989 2.50911 12.0879 2.05149C10.1769 1.59387 8.17337 1.82616 6.40576 2.71028C4.63814 3.59439 3.21136 5.07787 2.35932 6.91749C1.50728 8.7571 1.28055 10.8437 1.71631 12.8351C2.15207 14.8266 3.22446 16.6047 4.75765 17.878C6.29084 19.1513 8.19385 19.8442 10.1547 19.8431ZM10.1547 3.76563C11.4956 3.76563 12.8063 4.17982 13.9213 4.95582C15.0362 5.73182 15.9051 6.83478 16.4183 8.12522C16.9314 9.41565 17.0657 10.8356 16.8041 12.2055C16.5425 13.5755 15.8968 14.8338 14.9486 15.8215C14.0005 16.8091 12.7925 17.4817 11.4773 17.7542C10.1622 18.0267 8.79904 17.8869 7.56021 17.3524C6.32139 16.8178 5.26255 15.9127 4.5176 14.7513C3.77264 13.5899 3.37502 12.2245 3.37502 10.8278C3.37706 8.95544 4.092 7.16039 5.36299 5.83644C6.63398 4.51249 8.35723 3.76776 10.1547 3.76563Z" fill="#6E6151"/>
</svg>
